<?xml version="1.0" encoding="UTF-8"?>
<svg width="1200" height="630" viewBox="0 0 1200 630" xmlns="http://www.w3.org/2000/svg">
  <defs>
    <linearGradient id="bgGrad" x1="0%" y1="0%" x2="100%" y2="100%">
      <stop offset="0%" style="stop-color:#1e293b"/>
      <stop offset="100%" style="stop-color:#0f172a"/>
    </linearGradient>
    <linearGradient id="accentGrad" x1="0%" y1="0%" x2="100%" y2="0%">
      <stop offset="0%" style="stop-color:#3b82f6"/>
      <stop offset="100%" style="stop-color:#8b5cf6"/>
    </linearGradient>
  </defs>

  <!-- Background -->
  <rect width="1200" height="630" fill="url(#bgGrad)"/>

  <!-- Timeline line -->
  <line x1="150" y1="180" x2="150" y2="520" stroke="#334155" stroke-width="4" stroke-linecap="round"/>

  <!-- Timeline dots -->
  <circle cx="150" cy="200" r="12" fill="#3b82f6"/>
  <circle cx="150" cy="280" r="10" fill="#8b5cf6"/>
  <circle cx="150" cy="360" r="10" fill="#22c55e"/>
  <circle cx="150" cy="440" r="10" fill="#f59e0b"/>
  <circle cx="150" cy="500" r="8" fill="#6366f1"/>

  <!-- Timeline events (simplified) -->
  <rect x="180" y="185" width="280" height="30" rx="6" fill="#1e3a5f" opacity="0.6"/>
  <rect x="180" y="265" width="220" height="30" rx="6" fill="#1e3a5f" opacity="0.6"/>
  <rect x="180" y="345" width="260" height="30" rx="6" fill="#1e3a5f" opacity="0.6"/>
  <rect x="180" y="425" width="200" height="30" rx="6" fill="#1e3a5f" opacity="0.6"/>
  <rect x="180" y="485" width="240" height="30" rx="6" fill="#1e3a5f" opacity="0.6"/>

  <!-- Main content -->
  <text x="600" y="120" font-family="system-ui, -apple-system, sans-serif" font-size="22" fill="#94a3b8" text-anchor="middle" letter-spacing="0.2em">THE COMPLETE CHRONICLE</text>

  <text x="600" y="200" font-family="system-ui, -apple-system, sans-serif" font-size="72" font-weight="800" fill="#f8fafc" text-anchor="middle">How I Built</text>
  <text x="600" y="280" font-family="system-ui, -apple-system, sans-serif" font-size="72" font-weight="800" fill="url(#accentGrad)" text-anchor="middle">Myself</text>

  <text x="600" y="340" font-family="system-ui, -apple-system, sans-serif" font-size="24" fill="#94a3b8" text-anchor="middle">A decision graph tool that documented its own creation</text>

  <!-- Stats boxes -->
  <g transform="translate(480, 380)">
    <rect x="0" y="0" width="100" height="80" rx="8" fill="#1e3a5f"/>
    <text x="50" y="42" font-family="system-ui, sans-serif" font-size="32" font-weight="700" fill="#3b82f6" text-anchor="middle">520+</text>
    <text x="50" y="65" font-family="system-ui, sans-serif" font-size="14" fill="#64748b" text-anchor="middle">NODES</text>
  </g>

  <g transform="translate(600, 380)">
    <rect x="0" y="0" width="100" height="80" rx="8" fill="#1e3a5f"/>
    <text x="50" y="42" font-family="system-ui, sans-serif" font-size="32" font-weight="700" fill="#22c55e" text-anchor="middle">450+</text>
    <text x="50" y="65" font-family="system-ui, sans-serif" font-size="14" fill="#64748b" text-anchor="middle">EDGES</text>
  </g>

  <g transform="translate(720, 380)">
    <rect x="0" y="0" width="100" height="80" rx="8" fill="#1e3a5f"/>
    <text x="50" y="42" font-family="system-ui, sans-serif" font-size="32" font-weight="700" fill="#f59e0b" text-anchor="middle">12</text>
    <text x="50" y="65" font-family="system-ui, sans-serif" font-size="14" fill="#64748b" text-anchor="middle">DAYS</text>
  </g>

  <!-- DECIDUOUS branding -->
  <text x="600" y="560" font-family="system-ui, -apple-system, sans-serif" font-size="28" font-weight="700" fill="#64748b" text-anchor="middle" letter-spacing="0.15em">DECIDUOUS</text>
  <text x="600" y="590" font-family="system-ui, -apple-system, sans-serif" font-size="16" fill="#475569" text-anchor="middle">notactuallytreyanastasio.github.io/deciduous/story</text>

  <!-- Decorative elements -->
  <circle cx="1050" cy="150" r="80" fill="#3b82f6" opacity="0.1"/>
  <circle cx="1100" cy="450" r="120" fill="#8b5cf6" opacity="0.08"/>
  <circle cx="100" cy="550" r="60" fill="#22c55e" opacity="0.1"/>
</svg>
