<?xml version="1.0" encoding="UTF-8"?>
<svg width="1200" height="630" viewBox="0 0 1200 630" xmlns="http://www.w3.org/2000/svg">
  <defs>
    <linearGradient id="bgGrad" x1="0%" y1="0%" x2="100%" y2="100%">
      <stop offset="0%" style="stop-color:#1e293b"/>
      <stop offset="100%" style="stop-color:#0f172a"/>
    </linearGradient>
    <linearGradient id="accentGrad" x1="0%" y1="0%" x2="100%" y2="0%">
      <stop offset="0%" style="stop-color:#3b82f6"/>
      <stop offset="100%" style="stop-color:#8b5cf6"/>
    </linearGradient>
  </defs>

  <!-- Background -->
  <rect width="1200" height="630" fill="url(#bgGrad)"/>

  <!-- Graph visualization on left -->
  <g transform="translate(100, 150)">
    <!-- Nodes -->
    <circle cx="50" cy="50" r="30" fill="#f59e0b" opacity="0.9"/>
    <text x="50" y="55" font-family="system-ui, sans-serif" font-size="12" fill="#fff" text-anchor="middle" font-weight="600">goal</text>

    <circle cx="180" cy="120" r="25" fill="#8b5cf6" opacity="0.9"/>
    <text x="180" y="125" font-family="system-ui, sans-serif" font-size="11" fill="#fff" text-anchor="middle" font-weight="600">decision</text>

    <circle cx="320" cy="80" r="22" fill="#06b6d4" opacity="0.9"/>
    <text x="320" y="85" font-family="system-ui, sans-serif" font-size="10" fill="#fff" text-anchor="middle" font-weight="600">option</text>

    <circle cx="320" cy="160" r="22" fill="#06b6d4" opacity="0.9"/>
    <text x="320" y="165" font-family="system-ui, sans-serif" font-size="10" fill="#fff" text-anchor="middle" font-weight="600">option</text>

    <circle cx="180" cy="250" r="25" fill="#3b82f6" opacity="0.9"/>
    <text x="180" y="255" font-family="system-ui, sans-serif" font-size="11" fill="#fff" text-anchor="middle" font-weight="600">action</text>

    <circle cx="320" cy="280" r="22" fill="#22c55e" opacity="0.9"/>
    <text x="320" y="285" font-family="system-ui, sans-serif" font-size="10" fill="#fff" text-anchor="middle" font-weight="600">outcome</text>

    <!-- Edges -->
    <line x1="75" y1="65" x2="155" y2="105" stroke="#475569" stroke-width="2"/>
    <line x1="205" y1="110" x2="295" y2="85" stroke="#475569" stroke-width="2"/>
    <line x1="205" y1="130" x2="295" y2="155" stroke="#475569" stroke-width="2"/>
    <line x1="75" y1="70" x2="155" y2="235" stroke="#475569" stroke-width="2"/>
    <line x1="205" y1="260" x2="295" y2="275" stroke="#475569" stroke-width="2"/>

    <!-- Chosen marker -->
    <circle cx="320" cy="80" r="28" fill="none" stroke="#22c55e" stroke-width="3" stroke-dasharray="5,3"/>
  </g>

  <!-- Main content -->
  <text x="750" y="120" font-family="system-ui, -apple-system, sans-serif" font-size="20" fill="#94a3b8" text-anchor="middle" letter-spacing="0.15em">EXPLORE THE GRAPH</text>

  <text x="750" y="200" font-family="system-ui, -apple-system, sans-serif" font-size="64" font-weight="800" fill="#f8fafc" text-anchor="middle">Live Demo</text>

  <text x="750" y="270" font-family="system-ui, -apple-system, sans-serif" font-size="24" fill="#94a3b8" text-anchor="middle">Browse 520+ decisions that built Deciduous</text>

  <!-- Stats boxes -->
  <g transform="translate(520, 320)">
    <rect x="0" y="0" width="110" height="90" rx="10" fill="#1e3a5f"/>
    <text x="55" y="45" font-family="system-ui, sans-serif" font-size="32" font-weight="700" fill="#3b82f6" text-anchor="middle">520+</text>
    <text x="55" y="70" font-family="system-ui, sans-serif" font-size="14" fill="#64748b" text-anchor="middle">NODES</text>
  </g>

  <g transform="translate(650, 320)">
    <rect x="0" y="0" width="110" height="90" rx="10" fill="#1e3a5f"/>
    <text x="55" y="45" font-family="system-ui, sans-serif" font-size="32" font-weight="700" fill="#22c55e" text-anchor="middle">460+</text>
    <text x="55" y="70" font-family="system-ui, sans-serif" font-size="14" fill="#64748b" text-anchor="middle">EDGES</text>
  </g>

  <g transform="translate(780, 320)">
    <rect x="0" y="0" width="110" height="90" rx="10" fill="#1e3a5f"/>
    <text x="55" y="45" font-family="system-ui, sans-serif" font-size="32" font-weight="700" fill="#8b5cf6" text-anchor="middle">6</text>
    <text x="55" y="70" font-family="system-ui, sans-serif" font-size="14" fill="#64748b" text-anchor="middle">VIEWS</text>
  </g>

  <!-- View tabs -->
  <g transform="translate(520, 440)">
    <rect x="0" y="0" width="70" height="32" rx="6" fill="#3b82f6"/>
    <text x="35" y="21" font-family="system-ui, sans-serif" font-size="12" fill="#fff" text-anchor="middle" font-weight="600">DAG</text>
  </g>
  <g transform="translate(600, 440)">
    <rect x="0" y="0" width="80" height="32" rx="6" fill="#1e3a5f"/>
    <text x="40" y="21" font-family="system-ui, sans-serif" font-size="12" fill="#94a3b8" text-anchor="middle">Chains</text>
  </g>
  <g transform="translate(690, 440)">
    <rect x="0" y="0" width="85" height="32" rx="6" fill="#1e3a5f"/>
    <text x="42" y="21" font-family="system-ui, sans-serif" font-size="12" fill="#94a3b8" text-anchor="middle">Timeline</text>
  </g>
  <g transform="translate(785, 440)">
    <rect x="0" y="0" width="70" height="32" rx="6" fill="#1e3a5f"/>
    <text x="35" y="21" font-family="system-ui, sans-serif" font-size="12" fill="#94a3b8" text-anchor="middle">Graph</text>
  </g>
  <g transform="translate(865, 440)">
    <rect x="0" y="0" width="85" height="32" rx="6" fill="#1e3a5f"/>
    <text x="42" y="21" font-family="system-ui, sans-serif" font-size="12" fill="#94a3b8" text-anchor="middle">Roadmap</text>
  </g>

  <!-- DECIDUOUS branding -->
  <text x="750" y="540" font-family="system-ui, -apple-system, sans-serif" font-size="28" font-weight="700" fill="#64748b" text-anchor="middle" letter-spacing="0.15em">DECIDUOUS</text>
  <text x="750" y="575" font-family="system-ui, -apple-system, sans-serif" font-size="16" fill="#475569" text-anchor="middle">notactuallytreyanastasio.github.io/deciduous/demo</text>

  <!-- Decorative elements -->
  <circle cx="1080" cy="120" r="70" fill="#3b82f6" opacity="0.1"/>
  <circle cx="1100" cy="480" r="100" fill="#8b5cf6" opacity="0.08"/>
</svg>
